# xmcd
#
# Track frame offsets: 
#        183
#        13293
#        20138
#        46040
#        58448
#        68860
#        83530
#        94495
#        104200
#        113053
#        124845
#        137070
#        147300
#        159853
#        172680
#        185450
#        198530
#        211550
#        221548
#        232858
#
# Disc length: 3314 seconds
#
# Revision: 2
# Processed by: cddbd v1.5.2PL0 Copyright (c) Steve Scherf et al.
# Submitted via: ExactAudioCopyFreeDBPlugin 1.0
#
DISCID=1c0cf014
DTITLE=Various Artist - Country Gospel
DYEAR=1995
DGENRE=Country;Christian
TTITLE0=Carl Perkins - Hallelujah Special
TTITLE1=Jim Reeves - Old time religion
TTITLE2=Jerry Lee Lewis - Pictures from life's other side
TTITLE3=Gene Pitney and George JOnes - Wreck on the highway
TTITLE4=Patsy Cline - He'll do for you
TTITLE5=George JOnes - Family bible
TTITLE6=Jim Reeves - When God dips his love in my heart
TTITLE7=Johnny Cash - Why me Lord
TTITLE8=Oak Ridge Boys - He means all the world to me
TTITLE9=Bill Phillips - I saw the light
TTITLE10=Oak Ridge Boys - Without God
TTITLE11=Carl Perkins - Daddy sang bass
TTITLE12=Kenny Rogers - Reuben James
TTITLE13=Boxcar Willie - Hobo heaven
TTITLE14=Johnny Cash - Peace in the valle
TTITLE15=Oak Ridge Boys - The old country church
TTITLE16=Patsy Cline - Life's railway to heaven
TTITLE17=Jim Reeves - Softly and tenderly
TTITLE18=George JOnes - Old brush arbors
TTITLE19=Charley Pride - Let me live in the light of his love
EXTD=
EXTT0=
EXTT1=
EXTT2=
EXTT3=
EXTT4=
EXTT5=
EXTT6=
EXTT7=
EXTT8=
EXTT9=
EXTT10=
EXTT11=
EXTT12=
EXTT13=
EXTT14=
EXTT15=
EXTT16=
EXTT17=
EXTT18=
EXTT19=
PLAYORDER=
